<svg xmlns="http://www.w3.org/2000/svg" viewBox="0 0 40 40" fill="none">
  <defs>
    <linearGradient id="bg" x1="0" y1="0" x2="1" y2="1">
      <stop stop-color="#1a9155"/>
      <stop offset="1" stop-color="#0b3d22"/>
    </linearGradient>
  </defs>

  <!-- Background -->
  <rect width="40" height="40" rx="9" fill="url(#bg)"/>
  <!-- Subtle inner highlight at top -->
  <ellipse cx="20" cy="3.5" rx="13" ry="5" fill="white" fill-opacity="0.07"/>

  <!-- E spine -->
  <rect x="9" y="7" width="3.5" height="27" rx="1.75" fill="white"/>

  <!-- E top arm — leaf-pod shape (wide, full width) -->
  <path d="M9 7H22C25 7 27 8.6 27 10.5C27 12.4 25 14 22 14H9V7Z" fill="white"/>

  <!-- E middle arm — shorter -->
  <path d="M9 18H18C20.8 18 22.5 19.3 22.5 21C22.5 22.7 20.8 24 18 24H9V18Z" fill="white"/>

  <!-- E bottom arm — same width as top -->
  <path d="M9 27H22C25 27 27 28.6 27 30.5C27 32.4 25 34 22 34H9V27Z" fill="white"/>

  <!-- Seed accent dots at arm tips -->
  <circle cx="27" cy="10.5" r="2.2" fill="#a3f0c0" fill-opacity="0.9"/>
  <circle cx="22.5" cy="21" r="1.8" fill="#a3f0c0" fill-opacity="0.8"/>
  <circle cx="27" cy="30.5" r="2.2" fill="#a3f0c0" fill-opacity="0.9"/>
</svg>
